<?xml version="1.0" standalone="no"?>
<!DOCTYPE svg PUBLIC "-//W3C//DTD SVG 20010904//EN"
 "http://www.w3.org/TR/2001/REC-SVG-20010904/DTD/svg10.dtd">
<svg version="1.0" xmlns="http://www.w3.org/2000/svg"
 width="500.000000pt" height="500.000000pt" viewBox="0 0 500.000000 500.000000"
 preserveAspectRatio="xMidYMid meet">
<metadata>
Created by potrace 1.11, written by Peter Selinger 2001-2013
</metadata>
<g transform="translate(0.000000,500.000000) scale(0.100000,-0.100000)"
fill="#000000" stroke="none">
<path d="M4073 4778 c186 -233 387 -586 486 -853 290 -786 199 -1580 -252
-2188 -74 -100 -236 -268 -337 -350 -526 -425 -1182 -521 -1720 -252 -418 209
-683 605 -631 942 16 103 48 182 91 226 58 57 64 52 78 -64 47 -396 293 -677
680 -779 258 -68 547 -48 782 54 307 133 581 443 698 791 49 145 64 228 69
400 15 459 -145 885 -451 1203 -161 167 -303 269 -518 372 -257 123 -525 180
-845 180 -331 0 -622 -66 -915 -208 -675 -327 -1166 -1018 -1272 -1790 -21
-147 -21 -448 -1 -612 72 -580 326 -1082 772 -1528 134 -133 199 -184 140
-109 -186 232 -387 585 -486 852 -290 786 -199 1580 252 2188 74 100 236 268
337 350 526 425 1182 521 1720 252 418 -209 683 -605 631 -942 -16 -103 -48
-182 -91 -225 -58 -58 -64 -53 -78 63 -47 396 -293 677 -680 779 -258 68 -547
48 -782 -54 -307 -133 -581 -443 -698 -791 -49 -145 -64 -228 -69 -400 -9
-298 47 -558 178 -819 130 -259 361 -509 610 -660 232 -140 500 -232 779 -266
123 -15 391 -12 522 5 599 79 1144 422 1510 950 209 302 352 668 402 1033 21
147 21 448 1 612 -72 580 -326 1082 -772 1528 -134 133 -199 184 -140 110z"/>
</g>
</svg>
